<?xml version='1.0' encoding='iso-8859-1'?>
<svg version="1.1" xmlns="http://www.w3.org/2000/svg" viewBox="0 0 421.142 421.142" xmlns:xlink="http://www.w3.org/1999/xlink" enable-background="new 0 0 421.142 421.142">
  <defs>
    <style type="text/css">
      .land
      {
        fill: #ffee1d;
        fill-opacity: 1;
      }
    </style>

  </defs>
  <g>
    <g class="land">
      <path d="m227.129,96.071c-4.558-4.553-10.557-6.827-16.56-6.827-6.004,0-12.002,2.274-16.56,6.827l-97.938,97.942c-9.106,9.106-9.106,24.005 0,33.115l97.938,97.938c4.553,4.558 10.557,6.832 16.56,6.832 6.004,0 12.002-2.274 16.56-6.832l97.938-97.938c9.106-9.106 9.106-24.01 0-33.115l-97.938-97.942zm84.849,117.97l-97.942,97.938c-1.226,1.226-2.695,1.408-3.467,1.408-0.772,0-2.241-0.182-3.467-1.408l-97.942-97.938c-1.226-1.231-1.408-2.7-1.408-3.472 0-0.772 0.187-2.241 1.408-3.467l97.942-97.942c1.226-1.226 2.7-1.408 3.467-1.408s2.246,0.182 3.467,1.408l97.942,97.942c1.226,1.226 1.408,2.7 1.408,3.467s-0.182,2.241-1.408,3.472z"/>
      <path d="m210.569,352.908c-5.11,0-9.256,4.146-9.256,9.256v49.718c0,5.115 4.141,9.26 9.256,9.26 5.114,0 9.256-4.146 9.256-9.26v-49.718c-0.001-5.11-4.142-9.256-9.256-9.256z"/>
      <path d="m210.569,68.229c5.114,0 9.256-4.146 9.256-9.256v-49.717c0-5.114-4.141-9.256-9.256-9.256-5.11,0-9.256,4.141-9.256,9.256v49.718c0.005,5.109 4.146,9.255 9.256,9.255z"/>
      <path d="m411.886,201.313h-49.718c-5.115,0-9.256,4.146-9.256,9.256 0,5.11 4.141,9.256 9.256,9.256h49.718c5.11,0 9.256-4.146 9.256-9.256-5.68434e-14-5.11-4.146-9.256-9.256-9.256z"/>
      <path d="m58.973,201.313h-49.717c-5.11,0-9.256,4.146-9.256,9.256 0,5.11 4.141,9.256 9.256,9.256h49.718c5.11,0 9.256-4.146 9.256-9.256-0.001-5.11-4.147-9.256-9.257-9.256z"/>
      <path d="m121.671,134.755c1.806,1.806 4.174,2.709 6.542,2.709 2.368,0 4.735-0.903 6.542-2.709 3.612-3.612 3.612-9.476 0-13.088l-27.009-27.009c-3.612-3.612-9.471-3.612-13.088,0-3.612,3.612-3.612,9.471 0,13.088l27.013,27.009z"/>
      <path d="m299.471,286.378c-3.612-3.612-9.476-3.612-13.093,0-3.608,3.612-3.608,9.476 0,13.088l27.009,27.009c1.806,1.806 4.179,2.709 6.542,2.709s4.74-0.903 6.542-2.709c3.612-3.612 3.612-9.471 0-13.088l-27-27.009z"/>
      <path d="m121.671,286.378l-27.009,27.009c-3.612,3.612-3.612,9.471 0,13.088 1.806,1.806 4.174,2.709 6.542,2.709s4.735-0.903 6.542-2.709l27.009-27.009c3.612-3.608 3.612-9.471 0-13.088-3.613-3.617-9.471-3.617-13.084,0z"/>
      <path d="m292.929,137.464c2.368,0 4.735-0.903 6.542-2.709l27.004-27.009c3.612-3.612 3.612-9.476 0-13.088-3.612-3.612-9.471-3.612-13.088,0l-27.009,27.009c-3.608,3.612-3.608,9.471 0,13.088 1.811,1.806 4.179,2.709 6.551,2.709z"/>
    </g>
  </g>
</svg>
